<?xml version="1.0" encoding="UTF-8" standalone="no"?>
<svg width="16px" height="16px" viewBox="0 0 16 16" version="1.1" xmlns="http://www.w3.org/2000/svg" xmlns:xlink="http://www.w3.org/1999/xlink">
    <!-- Generator: sketchtool 40.1 (33804) - http://www.bohemiancoding.com/sketch -->
    <title>2CFACFDF-0F1C-4B49-84A6-86154AC2F666</title>
    <desc>Created with sketchtool.</desc>
    <defs></defs>
    <g id="Style-Guide" stroke="none" stroke-width="1" fill="none" fill-rule="evenodd">
        <g id="Info-Message-Box" transform="translate(-30.000000, -19.000000)" fill="#FFFFFF">
            <g id="top_bar" transform="translate(30.000000, 14.000000)">
                <g id="info-icon-wht" transform="translate(0.000000, 5.000000)">
                    <g id="info">
                        <path d="M8.08402559,0.000234994448 C3.63441472,-0.0330954241 0.0847251418,3.48326373 0.00139909538,7.9162094 C-0.081926951,12.3658203 3.56775388,15.9988359 8.00069955,15.9988359 C12.4336452,15.9988359 16,12.3991507 16,7.99953545 C16,3.5999202 12.5169713,0.033565413 8.08402559,0.000234994448 L8.08402559,0.000234994448 Z M7.9173735,12.2324986 C8.21734727,12.3324899 8.40066457,12.1158421 8.55065145,11.9158596 L9.11726857,11.1992556 L9.3505815,11.3659077 L8.71730355,12.3324899 C8.23401248,13.0490939 7.23409992,13.5823806 6.4841655,13.299072 C6.08420048,13.1324199 5.78422671,12.7491201 5.91754839,12.265829 C6.31751341,10.7992906 6.73414364,9.23276093 7.11744346,7.86621377 C7.16743908,7.71622689 7.2007695,7.5495748 7.2007695,7.3829227 C7.2007695,7.14960977 7.03411741,6.89963163 6.80080448,6.89963163 L6.40083946,6.89963163 L6.4841655,6.6663187 L6.56749155,6.58299266 L8.96728169,6.18302764 L9.45057275,6.18302764 L7.85071266,11.782538 C7.78405183,12.0158509 7.71739099,12.1991682 7.93403871,12.2491638 L7.9173735,12.2324986 Z M9.03394252,4.8664761 C8.43399499,4.8664761 7.9173735,4.43318066 7.9173735,3.83323313 C7.9173735,3.23328559 8.40066457,2.71666411 8.95061648,2.71666411 C9.58389443,2.71666411 10.0671855,3.14995955 10.0671855,3.74990708 C10.0671855,4.34985462 9.63389006,4.8664761 9.03394252,4.8664761 L9.03394252,4.8664761 Z"></path>
                    </g>
                </g>
            </g>
        </g>
    </g>
</svg>