<?xml version="1.0" encoding="UTF-8" standalone="no"?>
<svg width="20px" height="20px" viewBox="0 0 20 20" version="1.1" xmlns="http://www.w3.org/2000/svg" xmlns:xlink="http://www.w3.org/1999/xlink">
    <!-- Generator: sketchtool 40.2 (33826) - http://www.bohemiancoding.com/sketch -->
    <title>5BD138CA-BBF4-4EB4-A799-F64E51CD8135</title>
    <desc>Created with sketchtool.</desc>
    <defs></defs>
    <g id="Style-Guide" stroke="none" stroke-width="1" fill="none" fill-rule="evenodd">
        <g id="Icons" transform="translate(-44.000000, -683.000000)" fill="#483E2F">
            <g transform="translate(38.000000, 211.000000)" id="calendar">
                <g transform="translate(6.000000, 472.000000)">
                    <g id="calendar-icon">
                        <path d="M6.78459938,13.4098019 C7.38813736,12.9092805 8.67845994,12.4087591 8.67845994,11.5119917 C8.67845994,10.8029197 8.38709677,10.6152242 7.78355879,10.6152242 C7.07596254,10.6152242 6.88865765,11.2200209 6.88865765,11.9082377 L5.78563996,11.9082377 C5.68158169,10.3023983 6.78459938,9.61418144 7.88761707,9.61418144 C8.88657648,9.61418144 9.78147763,10.4066736 9.78147763,11.4077164 C9.78147763,12.4087591 9.17793965,12.9092805 8.78251821,13.1178311 C8.2830385,13.4098019 7.18002081,14.1188738 7.18002081,14.4108446 L9.8855359,14.4108446 L9.8855359,15.4118874 L5.68158169,15.4118874 C5.47346514,14.5151199 6.38917794,13.806048 6.78459938,13.4098019 L6.78459938,13.4098019 Z M4.99479709,4.4004171 C4.49531738,4.4004171 4.09989594,4.00417101 4.09989594,3.39937435 L4.09989594,0.896767466 C4.09989594,0.39624609 4.49531738,0 4.99479709,0 C5.4942768,0 5.88969823,0.39624609 5.88969823,0.896767466 L5.88969823,3.39937435 C5.88969823,4.00417101 5.4942768,4.4004171 4.99479709,4.4004171 L4.99479709,4.4004171 Z M14.9843913,4.4004171 C14.4849116,4.4004171 14.0894901,4.00417101 14.0894901,3.50364964 L14.0894901,0.896767466 C14.0894901,0.39624609 14.4849116,0 14.9843913,0 C15.483871,0 15.8792924,0.39624609 15.8792924,0.896767466 L15.8792924,3.39937435 C15.8792924,4.00417101 15.483871,4.4004171 14.9843913,4.4004171 L14.9843913,4.4004171 Z M12.1956296,14.7028154 C12.7991675,14.7028154 13.194589,14.2022941 13.194589,13.5974974 C13.194589,12.8884254 12.7991675,12.4921794 12.1956296,12.4921794 C11.6961498,12.4921794 11.4880333,12.7007299 11.3007284,12.9927007 L10.301769,12.9927007 L10.905307,9.88529718 L14.1103018,9.88529718 L14.1103018,10.8863399 L11.8210198,10.8863399 L11.5296566,11.991658 C11.7377732,11.7831074 12.1331946,11.5954119 12.6326743,11.5954119 C13.8397503,11.5954119 14.4224766,12.5964546 14.4224766,13.4932221 C14.4224766,14.7862357 13.3194589,15.4953076 12.3204995,15.4953076 C11.0301769,15.4953076 10.1144641,14.7028154 10.2185224,13.7017727 L11.4255983,13.7017727 C11.3215401,14.2022941 11.7169615,14.7028154 12.2164412,14.7028154 L12.1956296,14.7028154 Z M0,20 L0,2.48175182 L2.78876171,2.48175182 L2.78876171,3.37851929 C2.78876171,4.58811262 3.78772112,5.58915537 4.99479709,5.58915537 C6.20187305,5.58915537 7.20083247,4.58811262 7.20083247,3.37851929 L7.20083247,2.48175182 L12.7991675,2.48175182 L12.7991675,3.37851929 C12.7991675,4.58811262 13.798127,5.58915537 15.0052029,5.58915537 C16.2122789,5.58915537 17.2112383,4.58811262 17.2112383,3.37851929 L17.2112383,2.48175182 L20,2.48175182 L20,20 L0.0208116545,20 L0,20 Z M18.0853278,7.48696559 L1.89386056,7.48696559 L1.89386056,18.1021898 L18.0853278,18.1021898 L18.0853278,7.48696559 L18.0853278,7.48696559 Z" id="icon_calendar"></path>
                    </g>
                </g>
            </g>
        </g>
    </g>
</svg>