<?xml version="1.0" encoding="UTF-8" standalone="no"?>
<svg width="20px" height="20px" viewBox="0 0 20 20" version="1.1" xmlns="http://www.w3.org/2000/svg" xmlns:xlink="http://www.w3.org/1999/xlink">
    <!-- Generator: sketchtool 40.2 (33826) - http://www.bohemiancoding.com/sketch -->
    <title>F97119B9-8191-487B-998B-8D3572A2F993</title>
    <desc>Created with sketchtool.</desc>
    <defs></defs>
    <g id="Style-Guide" stroke="none" stroke-width="1" fill="none" fill-rule="evenodd">
        <g id="Icons" transform="translate(-44.000000, -720.000000)" fill="#483E2F">
            <g transform="translate(38.000000, 211.000000)" id="time">
                <g transform="translate(6.000000, 509.000000)">
                    <g id="clock-icon">
                        <path d="M10,20 C4.5,20 0,15.5 0,10 C0,4.5 4.5,0 10,0 C15.5,0 20,4.5 20,10 C20,15.5 15.5,20 10,20 L10,20 Z M10,1.89583333 C5.5,1.89583333 1.89583333,5.5 1.89583333,10 C1.89583333,14.5 5.5,18.1041667 10,18.1041667 C14.5,18.1041667 18.1041667,14.5 18.1041667,10 C18.1041667,5.5 14.5,1.89583333 10,1.89583333 L10,1.89583333 Z M15,10.8958333 L9.10416667,10.8958333 L9.10416667,3.5625 L10.8958333,3.5625 L10.8958333,9.10416667 L15,9.10416667 L15,10.8958333 Z" id="icon_clock"></path>
                    </g>
                </g>
            </g>
        </g>
    </g>
</svg>